<svg width="50" height="118" viewBox="0 0 50 118" fill="none" xmlns="http://www.w3.org/2000/svg">
<path fill-rule="evenodd" clip-rule="evenodd" d="M46.4114 26.7127C46.2846 26.4928 46.1803 26.2813 46.1154 26.0952C45.3767 23.9467 45.0045 21.722 44.4406 19.5283C42.8447 13.3195 43.1379 6.68216 45.4472 0.713041C45.6699 0.13784 46.3184 -0.146944 46.8936 0.0758057C47.4688 0.298555 47.7536 0.944211 47.5309 1.51941C45.388 7.05713 45.1229 13.2152 46.6032 18.9729C47.1531 21.1101 47.5111 23.2756 48.2302 25.3706C48.3373 25.6835 48.6474 26.0782 48.8955 26.4589C49.1634 26.8762 49.3833 27.2822 49.4735 27.6065C49.6229 28.1422 49.5271 28.5877 49.2903 28.9289C49.1211 29.1714 48.8645 29.3941 48.45 29.5126C48.2808 29.5605 47.9877 29.5943 47.5844 29.5041C46.9698 29.3687 45.6756 28.8471 43.9781 28.1648C41.198 27.0426 37.2618 25.4749 33.537 24.6685C31.2024 24.1609 28.958 23.941 27.1845 24.3978C26.5868 24.5529 25.9777 24.1919 25.8226 23.5942C25.6675 22.9992 26.0285 22.3874 26.6262 22.2323C28.6846 21.7022 31.2955 21.894 34.0108 22.4833C37.8624 23.3207 41.9395 24.9335 44.8155 26.0924C45.3681 26.3151 45.9208 26.5294 46.4114 26.7127Z" fill="#303030"/>
<path fill-rule="evenodd" clip-rule="evenodd" d="M44.6586 25.743C42.2794 14.8382 36.602 9.05177 30.0754 7.60517C20.2534 5.42818 8.87246 13.0151 4.69296 26.8754C-5.76596 61.56 19.6891 97.4845 47.4972 115.951C48.0236 116.302 48.1574 116.998 47.7997 117.511C47.4419 118.023 46.7236 118.153 46.1972 117.805C17.6474 98.8462 -8.2585 61.8544 2.47964 26.2441C7.06633 11.0335 19.8085 3.02755 30.5873 5.41686C37.7946 7.01634 44.2863 13.2331 46.9126 25.2759C47.0435 25.8817 46.645 26.479 46.0255 26.6064C45.4031 26.7367 44.7894 26.3488 44.6586 25.743Z" fill="#303030"/>
</svg>
