<svg width="20" height="26" viewBox="0 0 20 26" fill="none" xmlns="http://www.w3.org/2000/svg">
<path d="M11.6453 12.3698C12.2836 14.182 12.969 15.8419 13.4586 17.5707C13.9264 19.2416 14.1839 20.974 14.5212 22.6847C14.6153 23.0047 14.6038 23.3466 14.4886 23.6596C14.2057 24.1453 13.8612 24.7034 13.4006 24.9426C12.7877 25.2543 12.1277 24.9426 11.7614 24.341C11.3905 23.7592 11.091 23.135 10.8692 22.4817C9.88645 19.5424 8.94717 16.5958 8.00426 13.6782C6.45209 13.8594 4.88542 14.0624 3.31149 14.2146C2.70758 14.2581 2.10112 14.252 1.49821 14.1965C1.17546 14.2068 0.860609 14.0955 0.616097 13.8848C0.371586 13.674 0.215268 13.379 0.178138 13.0585C0.143794 12.8866 0.143663 12.7097 0.177754 12.5379C0.211844 12.366 0.279486 12.2025 0.376817 12.0568C0.474149 11.911 0.599262 11.7859 0.745005 11.6885C0.890748 11.5911 1.05427 11.5233 1.22622 11.4891C2.49551 11.1267 3.79382 10.8404 5.07763 10.5214L7.61622 9.89079C7.45665 8.24172 7.2862 6.62889 7.14477 5.02694C7.06861 4.12811 6.99245 3.21478 6.99245 2.32319C6.99245 1.27214 7.47841 0.641503 8.269 0.511027C9.05959 0.380551 9.81029 0.804595 10.0823 1.80491C10.3782 2.999 10.57 4.21652 10.6553 5.44374C10.7459 6.57453 10.6734 7.71619 10.6734 8.79262C11.8666 8.79262 13.096 8.79262 14.3217 8.79262C15.4097 8.79262 16.4977 8.70201 17.5856 8.72376C17.7624 8.70638 17.9409 8.72474 18.1105 8.77775C18.2801 8.83076 18.4372 8.91734 18.5726 9.03233C18.7079 9.14732 18.8187 9.28836 18.8984 9.44705C18.9781 9.60575 19.025 9.77884 19.0363 9.95603C19.0635 10.1323 19.0531 10.3123 19.006 10.4844C18.9588 10.6564 18.8759 10.8166 18.7627 10.9544C18.6494 11.0922 18.5083 11.2046 18.3486 11.2843C18.1889 11.3639 18.0142 11.409 17.8359 11.4166C16.4687 11.6341 15.0833 11.7465 13.7125 11.9385C13.0416 12.04 12.3815 12.214 11.6453 12.3698Z" fill="#303030"/>
</svg>
