<svg width="54" height="52" viewBox="0 0 54 52" fill="none" xmlns="http://www.w3.org/2000/svg">
<path d="M33.1101 20.1911C34.6224 20.3578 36.0113 20.4738 37.4148 20.6731C41.803 21.311 46.1766 22.0214 50.3254 23.6777C51.078 23.9849 51.7751 24.4134 52.3889 24.9462C53.6691 26.0335 53.524 27.7877 52.0263 28.5452C51.1201 29.009 50.1241 29.2712 49.1069 29.3135C46.7859 29.3643 44.4649 29.1794 42.1439 29.1504C38.6769 29.1033 35.2099 29.1106 31.7465 29.0961H28.5406C28.7945 30.6255 28.9613 32.0245 29.2659 33.3909C30.1617 37.4284 30.9015 41.4876 31.0502 45.6266C31.0707 46.8578 30.9857 48.0886 30.7963 49.3053C30.6694 50.2513 30.169 51.0305 29.1281 51.2081C28.6743 51.2974 28.2037 51.232 27.7914 51.0224C27.3792 50.8128 27.0492 50.4711 26.8543 50.0519C25.9549 48.2398 24.9721 46.3841 24.468 44.4342C23.5142 40.7374 22.8252 36.9717 22.1216 33.2169C21.6973 30.9698 21.759 30.8901 19.5069 31.4048C16.7434 32.0281 14.0271 32.8545 11.2564 33.4199C9.19014 33.837 7.09528 34.0974 4.98973 34.1991C3.97095 34.189 2.96866 33.9408 2.06309 33.4742C0.764779 32.869 0.46378 31.4954 1.19635 30.2595C1.99227 28.9189 3.25932 27.9227 4.75037 27.4651C8.23913 26.3198 11.7569 25.2615 15.2674 24.1633L16.2321 23.848C14.9918 22.7607 13.8095 21.793 12.7034 20.7456C9.16027 17.3931 5.99791 13.7361 3.86912 9.29271C3.6082 8.71756 3.39001 8.12398 3.21633 7.51679C2.81378 6.22653 3.07127 5.07762 3.94165 4.46873C4.99698 3.71124 6.13935 3.79822 7.17654 4.44336C8.16298 5.07929 9.10228 5.78546 9.98713 6.55635C14.1307 10.0107 18.0674 13.7054 21.7771 17.6214C23.7318 19.7272 23.7427 19.0712 24.5442 17.1249C26.3864 12.6815 28.4173 8.35039 31.5362 4.6427C32.6969 3.22285 34.0172 1.94109 35.471 0.822653C37.7992 -0.906152 40.0513 0.268136 40.2834 3.14948C40.4531 5.63339 39.9029 8.11354 38.6986 10.293C37.2009 13.1418 35.5363 15.9035 33.9442 18.7015C33.6758 19.1291 33.4401 19.5786 33.1101 20.1911Z" fill="#303030"/>
</svg>
